<svg xmlns="http://www.w3.org/2000/svg" xmlns:xlink="http://www.w3.org/1999/xlink"
    contentStyleType="text/css" data-diagram-type="CLASS" height="300px" preserveAspectRatio="none"
    style="width:581px;height:300px;background:#FFFFFF;" version="1.1" viewBox="0 0 581 300"
    width="581px" zoomAndPan="magnify">
    <defs />
    <g><!--class
        Varaus-->
        <g id="elem_Varaus">
            <rect codeLine="2" fill="#F1F1F1" height="96.8906" id="Varaus" rx="2.5" ry="2.5"
                style="stroke:#181818;stroke-width:0.5;" width="93.2998" x="227.35" y="196.48" />
            <ellipse cx="248.0387" cy="212.48" fill="#ADD1B2" rx="11" ry="11"
                style="stroke:#181818;stroke-width:1;" />
            <path
                d="M252.1481,218.48 L244.4293,218.48 L244.4293,206.0894 L252.1481,206.0894 L252.1481,208.2456 L246.8825,208.2456 L246.8825,210.9175 L251.6481,210.9175 L251.6481,213.0738 L246.8825,213.0738 L246.8825,216.3238 L252.1481,216.3238 L252.1481,218.48 Z "
                fill="#000000" />
            <text fill="#000000" font-family="sans-serif" font-size="14" lengthAdjust="spacing"
                textLength="48.6582" x="263.3029" y="217.3267">Varaus</text>
            <line style="stroke:#181818;stroke-width:0.5;" x1="228.35" x2="319.6498" y1="228.48"
                y2="228.48" />
            <ellipse cx="238.35" cy="242.1284" fill="#FFFFFF" fill-opacity="0.00000" rx="3" ry="3"
                style="stroke:#038048;stroke-width:1;" />
            <text fill="#000000" font-family="sans-serif" font-size="14" lengthAdjust="spacing"
                textLength="60.3818" x="247.35" y="245.4751">varausId</text>
            <ellipse cx="238.35" cy="258.4253" fill="#FFFFFF" fill-opacity="0.00000" rx="3" ry="3"
                style="stroke:#038048;stroke-width:1;" />
            <text fill="#000000" font-family="sans-serif" font-size="14" lengthAdjust="spacing"
                textLength="67.2998" x="247.35" y="261.772">startTime</text>
            <ellipse cx="238.35" cy="274.7222" fill="#FFFFFF" fill-opacity="0.00000" rx="3" ry="3"
                style="stroke:#038048;stroke-width:1;" />
            <text fill="#000000" font-family="sans-serif" font-size="14" lengthAdjust="spacing"
                textLength="61.0654" x="247.35" y="278.0689">endTime</text>
            <line style="stroke:#181818;stroke-width:0.5;" x1="228.35" x2="319.6498" y1="285.3706"
                y2="285.3706" />
        </g><!--class
        Tapahtuma-->
        <g id="elem_Tapahtuma">
            <rect codeLine="8" fill="#F1F1F1" height="96.8906" id="Tapahtuma" rx="2.5" ry="2.5"
                style="stroke:#181818;stroke-width:0.5;" width="116.002" x="7" y="23.29" />
            <ellipse cx="23.7789" cy="39.29" fill="#ADD1B2" rx="11" ry="11"
                style="stroke:#181818;stroke-width:1;" />
            <path
                d="M27.8883,45.29 L20.1695,45.29 L20.1695,32.8994 L27.8883,32.8994 L27.8883,35.0556 L22.6227,35.0556 L22.6227,37.7275 L27.3883,37.7275 L27.3883,39.8838 L22.6227,39.8838 L22.6227,43.1338 L27.8883,43.1338 L27.8883,45.29 Z "
                fill="#000000" />
            <text fill="#000000" font-family="sans-serif" font-size="14" lengthAdjust="spacing"
                textLength="80.0488" x="38.1742" y="44.1367">Tapahtuma</text>
            <line style="stroke:#181818;stroke-width:0.5;" x1="8" x2="122.002" y1="55.29" y2="55.29" />
            <ellipse cx="18" cy="68.9384" fill="#FFFFFF" fill-opacity="0.00000" rx="3" ry="3"
                style="stroke:#038048;stroke-width:1;" />
            <text fill="#000000" font-family="sans-serif" font-size="14" lengthAdjust="spacing"
                textLength="90.002" x="27" y="72.2851">tapahtumaId</text>
            <ellipse cx="18" cy="85.2353" fill="#FFFFFF" fill-opacity="0.00000" rx="3" ry="3"
                style="stroke:#038048;stroke-width:1;" />
            <text fill="#000000" font-family="sans-serif" font-size="14" lengthAdjust="spacing"
                textLength="30.29" x="27" y="88.582">nimi</text>
            <ellipse cx="18" cy="101.5322" fill="#FFFFFF" fill-opacity="0.00000" rx="3" ry="3"
                style="stroke:#038048;stroke-width:1;" />
            <text fill="#000000" font-family="sans-serif" font-size="14" lengthAdjust="spacing"
                textLength="50.0117" x="27" y="104.8789">kuvaus</text>
            <line style="stroke:#181818;stroke-width:0.5;" x1="8" x2="122.002" y1="112.1806"
                y2="112.1806" />
        </g><!--class
        Opetustila-->
        <g id="elem_Opetustila">
            <rect codeLine="14" fill="#F1F1F1" height="129.4844" id="Opetustila" rx="2.5" ry="2.5"
                style="stroke:#181818;stroke-width:0.5;" width="146.4219" x="427.79" y="7" />
            <ellipse cx="461.8693" cy="23" fill="#ADD1B2" rx="11" ry="11"
                style="stroke:#181818;stroke-width:1;" />
            <path
                d="M465.9787,29 L458.2599,29 L458.2599,16.6094 L465.9787,16.6094 L465.9787,18.7656 L460.713,18.7656 L460.713,21.4375 L465.4787,21.4375 L465.4787,23.5938 L460.713,23.5938 L460.713,26.8438 L465.9787,26.8438 L465.9787,29 Z "
                fill="#000000" />
            <text fill="#000000" font-family="sans-serif" font-size="14" lengthAdjust="spacing"
                textLength="72.0234" x="480.1091" y="27.8467">Opetustila</text>
            <line style="stroke:#181818;stroke-width:0.5;" x1="428.79" x2="573.2119" y1="39" y2="39" />
            <ellipse cx="438.79" cy="52.6484" fill="#FFFFFF" fill-opacity="0.00000" rx="3" ry="3"
                style="stroke:#038048;stroke-width:1;" />
            <text fill="#000000" font-family="sans-serif" font-size="14" lengthAdjust="spacing"
                textLength="82.585" x="447.79" y="55.9951">opetustilaId</text>
            <ellipse cx="438.79" cy="68.9453" fill="#FFFFFF" fill-opacity="0.00000" rx="3" ry="3"
                style="stroke:#038048;stroke-width:1;" />
            <text fill="#000000" font-family="sans-serif" font-size="14" lengthAdjust="spacing"
                textLength="48.2754" x="447.79" y="72.292">tunnus</text>
            <ellipse cx="438.79" cy="85.2422" fill="#FFFFFF" fill-opacity="0.00000" rx="3" ry="3"
                style="stroke:#038048;stroke-width:1;" />
            <text fill="#000000" font-family="sans-serif" font-size="14" lengthAdjust="spacing"
                textLength="75.8926" x="447.79" y="88.5889">paikkaluku</text>
            <ellipse cx="438.79" cy="101.5391" fill="#FFFFFF" fill-opacity="0.00000" rx="3" ry="3"
                style="stroke:#038048;stroke-width:1;" />
            <text fill="#000000" font-family="sans-serif" font-size="14" lengthAdjust="spacing"
                textLength="120.4219" x="447.79" y="104.8857">vuokrakustannus</text>
            <ellipse cx="438.79" cy="117.8359" fill="#FFFFFF" fill-opacity="0.00000" rx="3" ry="3"
                style="stroke:#038048;stroke-width:1;" />
            <text fill="#000000" font-family="sans-serif" font-size="14" lengthAdjust="spacing"
                textLength="64.5859" x="447.79" y="121.1826">lisatiedot</text>
            <line style="stroke:#181818;stroke-width:0.5;" x1="428.79" x2="573.2119" y1="128.4844"
                y2="128.4844" />
        </g><!--class
        Varustus-->
        <g id="elem_Varustus">
            <rect codeLine="22" fill="#F1F1F1" height="80.5938" id="Varustus" rx="2.5" ry="2.5"
                style="stroke:#181818;stroke-width:0.5;" width="99.459" x="451.27" y="204.63" />
            <ellipse cx="468.8456" cy="220.63" fill="#ADD1B2" rx="11" ry="11"
                style="stroke:#181818;stroke-width:1;" />
            <path
                d="M472.955,226.63 L465.2363,226.63 L465.2363,214.2394 L472.955,214.2394 L472.955,216.3956 L467.6894,216.3956 L467.6894,219.0675 L472.455,219.0675 L472.455,221.2238 L467.6894,221.2238 L467.6894,224.4738 L472.955,224.4738 L472.955,226.63 Z "
                fill="#000000" />
            <text fill="#000000" font-family="sans-serif" font-size="14" lengthAdjust="spacing"
                textLength="61.7354" x="483.418" y="225.4767">Varustus</text>
            <line style="stroke:#181818;stroke-width:0.5;" x1="452.27" x2="549.729" y1="236.63"
                y2="236.63" />
            <ellipse cx="462.27" cy="250.2784" fill="#FFFFFF" fill-opacity="0.00000" rx="3" ry="3"
                style="stroke:#038048;stroke-width:1;" />
            <text fill="#000000" font-family="sans-serif" font-size="14" lengthAdjust="spacing"
                textLength="73.459" x="471.27" y="253.6251">varustusId</text>
            <ellipse cx="462.27" cy="266.5753" fill="#FFFFFF" fill-opacity="0.00000" rx="3" ry="3"
                style="stroke:#038048;stroke-width:1;" />
            <text fill="#000000" font-family="sans-serif" font-size="14" lengthAdjust="spacing"
                textLength="30.29" x="471.27" y="269.922">nimi</text>
            <line style="stroke:#181818;stroke-width:0.5;" x1="452.27" x2="549.729" y1="277.2238"
                y2="277.2238" />
        </g><!--class
        Kayttaja-->
        <g id="elem_Kayttaja">
            <rect codeLine="27" fill="#F1F1F1" height="96.8906" id="Kayttaja" rx="2.5" ry="2.5"
                style="stroke:#181818;stroke-width:0.5;" width="96.0137" x="157.99" y="23.29" />
            <ellipse cx="175.6641" cy="39.29" fill="#ADD1B2" rx="11" ry="11"
                style="stroke:#181818;stroke-width:1;" />
            <path
                d="M179.7734,45.29 L172.0547,45.29 L172.0547,32.8994 L179.7734,32.8994 L179.7734,35.0556 L174.5078,35.0556 L174.5078,37.7275 L179.2734,37.7275 L179.2734,39.8838 L174.5078,39.8838 L174.5078,43.1338 L179.7734,43.1338 L179.7734,45.29 Z "
                fill="#000000" />
            <text fill="#000000" font-family="sans-serif" font-size="14" lengthAdjust="spacing"
                textLength="58.0713" x="190.2583" y="44.1367">Kayttaja</text>
            <line style="stroke:#181818;stroke-width:0.5;" x1="158.99" x2="253.0037" y1="55.29"
                y2="55.29" />
            <ellipse cx="168.99" cy="68.9384" fill="#FFFFFF" fill-opacity="0.00000" rx="3" ry="3"
                style="stroke:#038048;stroke-width:1;" />
            <text fill="#000000" font-family="sans-serif" font-size="14" lengthAdjust="spacing"
                textLength="70.0137" x="177.99" y="72.2851">kayttajaId</text>
            <ellipse cx="168.99" cy="85.2353" fill="#FFFFFF" fill-opacity="0.00000" rx="3" ry="3"
                style="stroke:#038048;stroke-width:1;" />
            <text fill="#000000" font-family="sans-serif" font-size="14" lengthAdjust="spacing"
                textLength="30.29" x="177.99" y="88.582">nimi</text>
            <ellipse cx="168.99" cy="101.5322" fill="#FFFFFF" fill-opacity="0.00000" rx="3" ry="3"
                style="stroke:#038048;stroke-width:1;" />
            <text fill="#000000" font-family="sans-serif" font-size="14" lengthAdjust="spacing"
                textLength="52.3564" x="177.99" y="104.8789">yksikk&#246;</text>
            <line style="stroke:#181818;stroke-width:0.5;" x1="158.99" x2="253.0037" y1="112.1806"
                y2="112.1806" />
        </g><!--class
        Periodi-->
        <g id="elem_Periodi">
            <rect codeLine="33" fill="#F1F1F1" height="129.4844" id="Periodi" rx="2.5" ry="2.5"
                style="stroke:#181818;stroke-width:0.5;" width="103.3213" x="289.34" y="7" />
            <ellipse cx="314.8152" cy="23" fill="#ADD1B2" rx="11" ry="11"
                style="stroke:#181818;stroke-width:1;" />
            <path
                d="M318.9246,29 L311.2059,29 L311.2059,16.6094 L318.9246,16.6094 L318.9246,18.7656 L313.659,18.7656 L313.659,21.4375 L318.4246,21.4375 L318.4246,23.5938 L313.659,23.5938 L313.659,26.8438 L318.9246,26.8438 L318.9246,29 Z "
                fill="#000000" />
            <text fill="#000000" font-family="sans-serif" font-size="14" lengthAdjust="spacing"
                textLength="48.043" x="331.1431" y="27.8467">Periodi</text>
            <line style="stroke:#181818;stroke-width:0.5;" x1="290.34" x2="391.6613" y1="39" y2="39" />
            <ellipse cx="300.34" cy="52.6484" fill="#FFFFFF" fill-opacity="0.00000" rx="3" ry="3"
                style="stroke:#038048;stroke-width:1;" />
            <text fill="#000000" font-family="sans-serif" font-size="14" lengthAdjust="spacing"
                textLength="61.5029" x="309.34" y="55.9951">periodiId</text>
            <ellipse cx="300.34" cy="68.9453" fill="#FFFFFF" fill-opacity="0.00000" rx="3" ry="3"
                style="stroke:#038048;stroke-width:1;" />
            <text fill="#000000" font-family="sans-serif" font-size="14" lengthAdjust="spacing"
                textLength="54.3184" x="309.34" y="72.292">numero</text>
            <ellipse cx="300.34" cy="85.2422" fill="#FFFFFF" fill-opacity="0.00000" rx="3" ry="3"
                style="stroke:#038048;stroke-width:1;" />
            <text fill="#000000" font-family="sans-serif" font-size="14" lengthAdjust="spacing"
                textLength="67.6689" x="309.34" y="88.5889">alkupaiva</text>
            <ellipse cx="300.34" cy="101.5391" fill="#FFFFFF" fill-opacity="0.00000" rx="3" ry="3"
                style="stroke:#038048;stroke-width:1;" />
            <text fill="#000000" font-family="sans-serif" font-size="14" lengthAdjust="spacing"
                textLength="77.3213" x="309.34" y="104.8857">loppupaiva</text>
            <ellipse cx="300.34" cy="117.8359" fill="#FFFFFF" fill-opacity="0.00000" rx="3" ry="3"
                style="stroke:#038048;stroke-width:1;" />
            <text fill="#000000" font-family="sans-serif" font-size="14" lengthAdjust="spacing"
                textLength="36.9072" x="309.34" y="121.1826">vuosi</text>
            <line style="stroke:#181818;stroke-width:0.5;" x1="290.34" x2="391.6613" y1="128.4844"
                y2="128.4844" />
        </g><!--link
        Opetustila to Varaus-->
        <g id="link_Opetustila_Varaus">
            <path codeLine="41"
                d="M439.53,136.93 C439.53,169.21 439.53,201.37 439.53,201.37 C439.53,201.37 369.93,201.37 320.99,201.37 "
                fill="#FFFFFF" fill-opacity="0.00000" id="Opetustila-Varaus"
                style="stroke:#181818;stroke-width:1;" />
            <text fill="#000000" font-family="sans-serif" font-size="13" lengthAdjust="spacing"
                textLength="8.271" x="424.7923" y="156.4997">1</text>
            <text fill="#000000" font-family="sans-serif" font-size="13" lengthAdjust="spacing"
                textLength="9.7246" x="328.6058" y="190.9479">N</text>
        </g><!--link
        Kayttaja to Varaus-->
        <g id="link_Kayttaja_Varaus">
            <path codeLine="42" d="M240.68,120.44 C240.68,144.05 240.68,172.34 240.68,195.99 "
                fill="#FFFFFF" fill-opacity="0.00000" id="Kayttaja-Varaus"
                style="stroke:#181818;stroke-width:1;" />
            <text fill="#000000" font-family="sans-serif" font-size="13" lengthAdjust="spacing"
                textLength="8.271" x="228.47" y="140.42">1</text>
            <text fill="#000000" font-family="sans-serif" font-size="13" lengthAdjust="spacing"
                textLength="9.7246" x="226.6466" y="185.4823">N</text>
        </g><!--link
        Tapahtuma to Varaus-->
        <g id="link_Tapahtuma_Varaus">
            <path codeLine="43"
                d="M65,120.57 C65,171.92 65,245.37 65,245.37 C65,245.37 165.48,245.37 227.1,245.37 "
                fill="#FFFFFF" fill-opacity="0.00000" id="Tapahtuma-Varaus"
                style="stroke:#181818;stroke-width:1;" />
            <text fill="#000000" font-family="sans-serif" font-size="13" lengthAdjust="spacing"
                textLength="8.271" x="52.2207" y="140.2158">1</text>
            <text fill="#000000" font-family="sans-serif" font-size="13" lengthAdjust="spacing"
                textLength="9.7246" x="209.6469" y="241.2794">N</text>
        </g><!--link
        Opetustila to Varustus-->
        <g id="link_Opetustila_Varustus">
            <path codeLine="44" d="M501,136.72 C501,159.37 501,184.13 501,204.24 " fill="#FFFFFF"
                fill-opacity="0.00000" id="Opetustila-Varustus"
                style="stroke:#181818;stroke-width:1;" />
            <text fill="#000000" font-family="sans-serif" font-size="13" lengthAdjust="spacing"
                textLength="9.7246" x="487.3358" y="156.7214">N</text>
            <text fill="#000000" font-family="sans-serif" font-size="13" lengthAdjust="spacing"
                textLength="11.2163" x="484.8326" y="193.6377">M</text>
        </g><!--link
        Periodi to Varaus-->
        <g id="link_Periodi_Varaus">
            <path codeLine="45" d="M305,136.72 C305,156.39 305,177.66 305,196.09 " fill="#FFFFFF"
                fill-opacity="0.00000" id="Periodi-Varaus" style="stroke:#181818;stroke-width:1;" />
            <text fill="#000000" font-family="sans-serif" font-size="13" lengthAdjust="spacing"
                textLength="9.7246" x="291.6099" y="156.7214">N</text>
            <text fill="#000000" font-family="sans-serif" font-size="13" lengthAdjust="spacing"
                textLength="11.2163" x="289.0573" y="185.2441">M</text>
        </g><!--SRC=[NP1DQWCn38NtSmhXRSWYnoYbQHUXUy4OedhyWoqD3ANNwWLoiMWyVoOhF_7qoKygZaB2Z1u62fQdP25cliVE1YQUu5izAV3RdM2iygrNMHWptyXRrJRqLVrr6tF3X7SMZnNZhQfa84_wE1brLiDy9ijIc0QScRXN5M89GRjFa92Smq6Sp7aakenE-t2r1oh8PFl8pMJTG5kah2jKVKGv-jvnOiQV9RHRYpRpv8h-_lXlc2-RAVPKaRJeXH1lSrI1WnCDFUASBgQq5ng-rD-FnS5S39pFOAvcFNktPp8NW5VpEBEwhsOxzhgw7s3sQtHRz9bPJDZW9m00]-->
    </g>
</svg>