<svg xmlns="http://www.w3.org/2000/svg" version="1.1" xmlns:xlink="http://www.w3.org/1999/xlink" width="1500" height="1500" viewBox="0 0 1500 1500"><rect width="1500" height="1500" x="0" y="0" id="background" stroke="transparent" fill="#000000"></rect><svg xml:space="preserve" width="1000" height="1000" data-version="2" data-id="lg_3cxanr2DzLkzREo394" viewBox="0 0 559 130" x="250" y="250"><rect width="100%" height="100%" fill="transparent"></rect><path fill="#464646" d="M79.977 93.977c5.213-4.095 15.912-15.054 19.63-27.534A25212.2 25212.2 0 0 1 47.295 1.339c-.845 9.75-9.399 30.238-24.245 37.089a104 104 0 0 1-16.211 6.136l50.804 61.516c5.733-1.859 17.082-7.969 22.347-12.09m34.307 3.848a167.7 167.7 0 0 1-26.871 12.909 734.5 734.5 0 0 1-29.107 9.971v6.656l55.978-20.111zM5.721 46.514V65l50.453 62.218.052-19.565z"></path><path fill="#464646" d="M112.113 91.429a143 143 0 0 1-23.764 14.768c-8.476 4.251-27.144 9.971-30.03 10.842v1.495c4.81-1.43 16.952-5.07 27.612-9.126 11.83-4.485 28.756-15.106 28.756-15.106zm-10.192-25.454-.156.52C98.06 79.677 87.14 91.013 81.277 95.615c-5.486 4.329-16.9 10.478-22.945 12.441v2.821c8.489-2.652 20.345-8.268 26.936-12.909 11.31-7.956 22.36-19.019 29.146-29.12l.052.052c-7.644-8.645-50.18-57.317-52.923-60.827-.936 1.768-1.781 2.938-3.146 3.757 14.079 17.563 37.18 46.345 43.16 53.703z"></path><path fill="#464646" d="M110.293 77.779S95.226 93.496 86.477 99.671c-7.41 5.2-18.85 10.322-28.132 13.221v1.95l4.238-1.326c6.851-2.184 18.733-6.149 24.843-9.204 12.09-6.032 22.906-13.351 29.679-19.994l.221-.208zM199.9 84.45h-10.1q.06-.06.06-.22 0-.38-.3-1.26-.29-.89-.64-1.88-.35-.99-.73-1.88-.37-.89-.53-1.26-5.7-.22-11.42-.16-5.72.05-11.41.26-.16.38-.54 1.27-.37.88-.72 1.85-.35.97-.65 1.83-.29.85-.29 1.23 0 .16.05.22h-10.04q.32-.38.78-1.21.45-.84.91-1.78.45-.94.88-1.82.43-.89.65-1.37.59-1.18 1.88-3.81 1.29-2.64 2.87-5.99 1.59-3.36 3.28-7.04 1.69-3.68 3.09-6.95 1.39-3.28 2.28-5.75.89-2.47.89-3.39 0-.1-.03-.24-.03-.13-.14-.13h12.57q-.1 0-.13.13-.03.14-.03.24 0 .92.89 3.39.88 2.47 2.28 5.75 1.4 3.27 3.09 6.95t3.28 7.04q1.58 3.35 2.84 5.99 1.26 2.63 1.86 3.81.21.48.64 1.37.43.88.91 1.82.49.94.94 1.78.46.83.78 1.21m-32.87-11.5 2.26.06q8 0 16.06-.33-2.21-4.88-4.38-9.66-2.18-4.79-4.7-9.46-2.58 4.73-4.78 9.62-2.2 4.88-4.46 9.77m60.05-4.19q.48.43 1.93 1.77 1.45 1.35 3.36 3.07 1.91 1.71 4.03 3.59t3.97 3.47q1.86 1.58 3.2 2.66 1.34 1.07 1.72 1.13h-11.12q-.32-.43-.91-1.05-.59-.62-1.24-1.24-.64-.61-1.26-1.21-.62-.59-1.05-.96-2.63-2.58-5.29-5.02-2.66-2.45-5.45-4.87-2.2.27-4.35.35-2.15.08-4.35.19-.06 1.45-.06 2.88v4.53q0 1.19.06 2.53.05 1.34.24 2.44.19 1.1.51 1.43h-9.4q.32-.33.54-2.07.21-1.75.32-4.22.11-2.47.16-5.34.05-2.88.05-5.51t-.02-4.67q-.03-2.04-.03-2.85 0-.48.03-1.72.02-1.23 0-2.84-.03-1.61-.11-3.39-.08-1.77-.29-3.27-.22-1.51-.6-2.53-.37-1.02-.91-1.18h8.57q1.26 0 2.12.03.86.02 1.02.02 1.93 0 4.91.09 2.99.08 6.34.45 3.36.38 6.74 1.1 3.39.73 6.1 2.07 2.71 1.34 4.43 3.36 1.72 2.01 1.72 4.91 0 2.8-1.61 4.81t-4 3.41q-2.39 1.4-5.11 2.28-2.71.89-4.91 1.37m5.91-11.98q0-1.61-1.34-2.71-1.35-1.1-3.47-1.77-2.12-.67-4.73-.99-2.6-.33-5.07-.46t-4.54-.13h-3.14q-.27 3-.35 5.98-.08 2.99-.08 5.99v1.45l4.19-.1q2.09-.06 4.13-.22 1.02-.05 2.47-.21 1.45-.17 3.07-.46 1.61-.3 3.19-.78 1.59-.48 2.85-1.23 1.26-.76 2.04-1.83.78-1.08.78-2.53m31.41 4.89q.48.49 1.77 1.69 1.29 1.21 3.06 2.85 1.78 1.64 3.87 3.6 2.09 1.96 4.24 3.95 2.15 1.98 4.19 3.84 2.04 1.85 3.71 3.3 1.66 1.45 2.79 2.34 1.13.88 1.4.94l-10.85.27q-.43-.6-1.02-1.16-.59-.56-1.13-1.15-4.3-4.3-8.65-8.46-4.35-4.17-8.91-8.14l-4.09 2.9q0 1.99-.02 3.97-.03 1.99-.03 3.98v1.66q0 1.19.05 2.53.06 1.34.25 2.44.18 1.1.51 1.43h-9.4q.32-.33.53-2.07.22-1.75.35-4.25.14-2.49.16-5.37.03-2.87.03-5.47 0-2.61-.03-4.65-.02-2.04-.02-2.85 0-.48.02-1.72.03-1.23 0-2.84-.02-1.61-.1-3.39-.08-1.77-.3-3.27-.21-1.51-.59-2.53-.38-1.02-.91-1.18h12.03q-.65 0-1.08 1.05-.43 1.05-.69 2.66-.27 1.61-.43 3.51-.16 1.91-.22 3.68-.05 1.78-.05 3.15v1.85q.75-.43 2.58-1.69 1.82-1.26 4.13-2.9 2.31-1.64 4.84-3.49 2.52-1.86 4.64-3.47 2.12-1.61 3.57-2.82 1.45-1.21 1.67-1.58l12.67.05q-1.12.59-2.55 1.61-1.42 1.02-2.49 1.77-4.95 3.33-9.78 6.66-4.83 3.33-9.72 6.77"></path><path fill="#464646" d="M307.43 61.67q.48.49 1.77 1.69 1.29 1.21 3.07 2.85 1.77 1.64 3.86 3.6 2.1 1.96 4.25 3.95 2.14 1.98 4.18 3.84 2.05 1.85 3.71 3.3 1.67 1.45 2.79 2.34 1.13.88 1.4.94l-10.85.27q-.43-.6-1.02-1.16-.59-.56-1.13-1.15-4.29-4.3-8.65-8.46-4.35-4.17-8.91-8.14l-4.08 2.9q0 1.99-.03 3.97-.03 1.99-.03 3.98v1.66q0 1.19.06 2.53.05 1.34.24 2.44.19 1.1.51 1.43h-9.4q.32-.33.54-2.07.21-1.75.35-4.25.13-2.49.16-5.37.02-2.87.02-5.47 0-2.61-.02-4.65-.03-2.04-.03-2.85 0-.48.03-1.72.02-1.23 0-2.84-.03-1.61-.11-3.39-.08-1.77-.3-3.27-.21-1.51-.59-2.53-.37-1.02-.91-1.18h12.03q-.64 0-1.07 1.05-.43 1.05-.7 2.66-.27 1.61-.43 3.51-.16 1.91-.22 3.68-.05 1.78-.05 3.15v1.85q.75-.43 2.58-1.69 1.82-1.26 4.13-2.9 2.31-1.64 4.84-3.49 2.52-1.86 4.64-3.47 2.13-1.61 3.58-2.82 1.45-1.21 1.66-1.58l12.68.05q-1.13.59-2.55 1.61-1.43 1.02-2.5 1.77-4.94 3.33-9.78 6.66-4.83 3.33-9.72 6.77"></path><path fill="#464646" d="M332.19 84.45q.32-.33.54-2.07.21-1.75.35-4.22.13-2.47.16-5.37t.03-5.53q0-2.63-.03-4.65-.03-2.01-.03-2.82 0-.48.03-1.72.03-1.23 0-2.84-.03-1.61-.11-3.39-.08-1.77-.29-3.27-.22-1.51-.59-2.53-.38-1.02-.92-1.18h12.03q-.69 0-1.15 1.24-.46 1.23-.73 3.11-.26 1.88-.4 4.16-.13 2.29-.19 4.38-.05 2.1-.05 3.73v2.23q0 3.17-.03 6.31-.02 3.15-.02 6.37v1.66q0 1.24.05 2.56.05 1.31.24 2.44t.51 1.4zm14.45-39.64 10.47.05q3.17 0 7.09.46 3.92.45 7.9 1.45 3.97.99 7.73 2.66 3.76 1.66 6.66 4.05 2.9 2.39 4.68 5.61 1.77 3.23 1.77 7.36 0 4.51-2.02 7.6-2.01 3.09-5.31 5.08-3.31 1.99-7.5 3.09-4.18 1.1-8.54 1.58-4.35.48-8.43.57-4.08.08-7.2.08h-6.44q.16-.33.27-1.62.11-1.28.19-3.08t.13-3.9q.05-2.09.08-3.95.03-1.85.03-3.27v-4.35q0-1.8-.06-4.14-.05-2.33-.13-4.97-.08-2.63-.27-4.86-.19-2.23-.46-3.76-.26-1.53-.64-1.74m9.67 34.86q.7 0 1.39.02.7.03 1.4.03 2.04 0 4.75-.16 2.72-.16 5.62-.65 2.9-.48 5.69-1.34 2.79-.86 5-2.31 2.2-1.45 3.57-3.52 1.37-2.06 1.37-4.91 0-3.12-1.21-5.59-1.21-2.47-3.22-4.37-2.02-1.91-4.68-3.23-2.66-1.31-5.53-2.17-2.87-.86-5.77-1.24-2.9-.37-5.43-.37-.7 0-1.39.02-.7.03-1.4.08-.27 4.35-.32 8.65-.06 4.3-.06 8.65 0 3.11.03 6.2.03 3.09.19 6.21m40.55 4.78q.32-.33.54-2.07.21-1.75.35-4.22.13-2.47.16-5.37.02-2.9.02-5.53 0-2.63-.02-4.65-.03-2.01-.03-2.82 0-.48.03-1.72.02-1.23 0-2.84-.03-1.61-.11-3.39-.08-1.77-.3-3.27-.21-1.51-.59-2.53-.37-1.02-.91-1.18h12.03q-.7 0-1.15 1.24-.46 1.23-.73 3.11-.27 1.88-.4 4.16-.14 2.29-.19 4.38-.05 2.1-.05 3.73v2.23q0 3.17-.03 6.31-.03 3.15-.03 6.37v1.66q0 1.24.06 2.56.05 1.31.24 2.44t.51 1.4z"></path><path fill="#464646" d="M456.59 44.85q-.59.32-1.56 1.64-.97 1.31-2.2 3.3-1.24 1.99-2.66 4.43-1.43 2.45-2.88 5.05-1.45 2.61-2.82 5.21-1.36 2.61-2.55 4.84-1.18 2.23-2.06 3.92-.89 1.69-1.32 2.55l-2.74 5.32q-.43.86-.86 1.69t-.97 1.64q-.69.1-1.34.05-.64-.05-1.34-.05h-6.5q-.59-1.13-1.72-3.36t-2.6-5.1q-1.48-2.88-3.25-6.18-1.78-3.3-3.58-6.63-1.79-3.33-3.57-6.48-1.77-3.14-3.3-5.64-1.53-2.49-2.71-4.16-1.18-1.66-1.83-2.04 2.96 0 5.91.03 2.95.02 5.96-.03-.16.11-.19.3-.02.18-.02.35 0 1.12.94 3.59.94 2.47 2.44 5.64 1.5 3.17 3.33 6.66 1.83 3.5 3.55 6.69 1.71 3.2 3.14 5.72 1.42 2.53 2.17 3.76.7-1.23 2.15-3.76 1.45-2.52 3.17-5.72 1.72-3.19 3.54-6.69 1.83-3.49 3.31-6.66t2.44-5.64q.97-2.47.97-3.59 0-.17-.03-.35-.03-.19-.19-.3 2.96.05 5.89.03 2.92-.03 5.88-.03m39.31 39.6h-10.09q.05-.06.05-.22 0-.38-.3-1.26-.29-.89-.64-1.88-.35-.99-.73-1.88-.37-.89-.53-1.26-5.7-.22-11.42-.16-5.72.05-11.41.26-.16.38-.54 1.27-.37.88-.72 1.85-.35.97-.65 1.83-.29.85-.29 1.23 0 .16.05.22h-10.04q.32-.38.78-1.21.45-.84.91-1.78l.89-1.82q.43-.89.64-1.37.59-1.18 1.88-3.81 1.29-2.64 2.87-5.99 1.59-3.36 3.28-7.04 1.69-3.68 3.09-6.95 1.39-3.28 2.28-5.75.89-2.47.89-3.39 0-.1-.03-.24-.03-.13-.13-.13h12.56q-.1 0-.13.13-.03.14-.03.24 0 .92.89 3.39t2.28 5.75q1.4 3.27 3.09 6.95t3.28 7.04q1.58 3.35 2.84 5.99 1.27 2.63 1.86 3.81.21.48.64 1.37.43.88.91 1.82.49.94.94 1.78.46.83.78 1.21m-32.87-11.5 2.26.06q8 0 16.06-.33-2.2-4.88-4.38-9.66-2.18-4.79-4.7-9.46-2.58 4.73-4.78 9.62-2.2 4.88-4.46 9.77m60.05-4.19q.48.43 1.93 1.77 1.45 1.35 3.36 3.07 1.91 1.71 4.03 3.59t3.97 3.47q1.86 1.58 3.2 2.66 1.34 1.07 1.72 1.13h-11.12q-.32-.43-.91-1.05-.59-.62-1.24-1.24-.64-.61-1.26-1.21-.62-.59-1.05-.96-2.63-2.58-5.29-5.02-2.66-2.45-5.45-4.87-2.2.27-4.35.35-2.15.08-4.35.19-.05 1.45-.05 2.88v4.53q0 1.19.05 2.53.05 1.34.24 2.44.19 1.1.51 1.43h-9.4q.32-.33.54-2.07.21-1.75.32-4.22.11-2.47.16-5.34.06-2.88.06-5.51t-.03-4.67q-.03-2.04-.03-2.85 0-.48.03-1.72.03-1.23 0-2.84-.03-1.61-.11-3.39-.08-1.77-.29-3.27-.22-1.51-.59-2.53-.38-1.02-.92-1.18h8.57q1.26 0 2.12.03.86.02 1.02.02 1.93 0 4.92.09 2.98.08 6.33.45 3.36.38 6.74 1.1 3.39.73 6.1 2.07 2.71 1.34 4.43 3.36 1.72 2.01 1.72 4.91 0 2.8-1.61 4.81t-4 3.41q-2.39 1.4-5.1 2.28-2.72.89-4.92 1.37m5.91-11.98q0-1.61-1.34-2.71-1.35-1.1-3.47-1.77-2.12-.67-4.72-.99-2.61-.33-5.08-.46t-4.54-.13h-3.14q-.27 3-.35 5.98-.08 2.99-.08 5.99v1.45l4.19-.1q2.09-.06 4.13-.22 1.02-.05 2.47-.21 1.46-.17 3.07-.46 1.61-.3 3.19-.78 1.59-.48 2.85-1.23 1.26-.76 2.04-1.83.78-1.08.78-2.53m13.15 27.67q.32-.33.54-2.07.21-1.75.34-4.22.14-2.47.17-5.37.02-2.9.02-5.53 0-2.63-.02-4.65-.03-2.01-.03-2.82 0-.48.03-1.72.02-1.23 0-2.84-.03-1.61-.11-3.39-.08-1.77-.3-3.27-.21-1.51-.59-2.53-.37-1.02-.91-1.18h12.03q-.7 0-1.15 1.24-.46 1.23-.73 3.11-.27 1.88-.4 4.16-.14 2.29-.19 4.38-.05 2.1-.05 3.73v2.23q0 3.17-.03 6.31-.03 3.15-.03 6.37v1.66q0 1.24.06 2.56.05 1.31.24 2.44t.51 1.4z"></path></svg></svg>